<mxfile>
    <diagram id="l3voaJdFqPwOimo8SxjQ" name="Page-1">
        <mxGraphModel dx="1003" dy="712" grid="1" gridSize="10" guides="1" tooltips="1" connect="1" arrows="1" fold="1" page="1" pageScale="1" pageWidth="900" pageHeight="500" background="#F1FAEE" math="0" shadow="0">
            <root>
                <mxCell id="0"/>
                <mxCell id="1" parent="0"/>
                <mxCell id="40" value="" style="shape=datastore;whiteSpace=wrap;html=1;rounded=0;sketch=1;strokeColor=#457B9D;fillColor=#A8DADC;fontSize=16;fontColor=#1D3557;" vertex="1" parent="1">
                    <mxGeometry x="30" y="270" width="130" height="170" as="geometry"/>
                </mxCell>
                <mxCell id="2" value="Web Server" style="rounded=0;whiteSpace=wrap;html=1;sketch=1;strokeColor=#457B9D;fillColor=#A8DADC;fontColor=#1D3557;fontSize=16;" vertex="1" parent="1">
                    <mxGeometry x="40" y="40" width="120" height="60" as="geometry"/>
                </mxCell>
                <mxCell id="14" style="edgeStyle=orthogonalEdgeStyle;curved=0;rounded=1;sketch=1;orthogonalLoop=1;jettySize=auto;html=1;exitX=0.5;exitY=1;exitDx=0;exitDy=0;entryX=0.5;entryY=0;entryDx=0;entryDy=0;strokeColor=#FF8000;fillColor=#A8DADC;fontSize=16;fontColor=#000000;" edge="1" parent="1" source="16">
                    <mxGeometry relative="1" as="geometry">
                        <mxPoint x="100" y="270" as="targetPoint"/>
                    </mxGeometry>
                </mxCell>
                <mxCell id="23" style="edgeStyle=orthogonalEdgeStyle;curved=0;rounded=1;sketch=1;orthogonalLoop=1;jettySize=auto;html=1;entryX=0.5;entryY=0;entryDx=0;entryDy=0;strokeColor=#FF8000;fillColor=#A8DADC;fontSize=16;fontColor=#1D3557;exitX=0.843;exitY=1.04;exitDx=0;exitDy=0;exitPerimeter=0;" edge="1" parent="1" source="4" target="5">
                    <mxGeometry relative="1" as="geometry"/>
                </mxCell>
                <mxCell id="42" style="edgeStyle=orthogonalEdgeStyle;curved=0;rounded=1;sketch=1;orthogonalLoop=1;jettySize=auto;html=1;exitX=0.25;exitY=1;exitDx=0;exitDy=0;entryX=1;entryY=0.7;entryDx=0;entryDy=0;strokeColor=#FF8000;fillColor=#A8DADC;fontSize=16;fontColor=#1D3557;" edge="1" parent="1" source="4" target="40">
                    <mxGeometry relative="1" as="geometry"/>
                </mxCell>
                <mxCell id="4" value="Scheduler" style="rounded=0;whiteSpace=wrap;html=1;sketch=1;strokeColor=#457B9D;fillColor=#A8DADC;fontColor=#1D3557;fontSize=16;" vertex="1" parent="1">
                    <mxGeometry x="720" y="40" width="120" height="60" as="geometry"/>
                </mxCell>
                <mxCell id="29" style="edgeStyle=orthogonalEdgeStyle;curved=0;rounded=1;sketch=1;orthogonalLoop=1;jettySize=auto;html=1;strokeColor=#FF8000;fillColor=#A8DADC;fontSize=16;fontColor=#1D3557;" edge="1" parent="1" source="5">
                    <mxGeometry relative="1" as="geometry">
                        <mxPoint x="640" y="320" as="targetPoint"/>
                    </mxGeometry>
                </mxCell>
                <mxCell id="5" value="Executor" style="rounded=0;whiteSpace=wrap;html=1;sketch=1;strokeColor=#457B9D;fillColor=#A8DADC;fontColor=#1D3557;fontSize=16;" vertex="1" parent="1">
                    <mxGeometry x="800" y="290" width="120" height="60" as="geometry"/>
                </mxCell>
                <mxCell id="7" value="Folder Dags" style="shape=card;whiteSpace=wrap;html=1;rounded=0;sketch=1;strokeColor=#457B9D;fillColor=#A8DADC;fontSize=16;fontColor=#1D3557;" vertex="1" parent="1">
                    <mxGeometry x="400" y="40" width="80" height="100" as="geometry"/>
                </mxCell>
                <mxCell id="8" value="" style="endArrow=classic;startArrow=classic;html=1;fillColor=#A8DADC;fontSize=16;exitX=1;exitY=0.5;exitDx=0;exitDy=0;entryX=0;entryY=0;entryDx=0;entryDy=30;entryPerimeter=0;fontColor=#FF8000;strokeColor=#FF8000;" edge="1" parent="1" source="2" target="7">
                    <mxGeometry width="50" height="50" relative="1" as="geometry">
                        <mxPoint x="440" y="310" as="sourcePoint"/>
                        <mxPoint x="490" y="260" as="targetPoint"/>
                    </mxGeometry>
                </mxCell>
                <mxCell id="9" value="" style="endArrow=classic;startArrow=classic;html=1;fillColor=#A8DADC;fontSize=16;exitX=1;exitY=0.5;exitDx=0;exitDy=0;entryX=0;entryY=0;entryDx=0;entryDy=30;entryPerimeter=0;fontColor=#FF8000;strokeColor=#FF8000;" edge="1" parent="1">
                    <mxGeometry width="50" height="50" relative="1" as="geometry">
                        <mxPoint x="480" y="69.33" as="sourcePoint"/>
                        <mxPoint x="720" y="69.33" as="targetPoint"/>
                    </mxGeometry>
                </mxCell>
                <mxCell id="10" value="Parses&lt;br&gt;Every 30 seconds (Default)" style="text;html=1;strokeColor=none;fillColor=none;align=center;verticalAlign=middle;whiteSpace=wrap;rounded=0;sketch=1;fontSize=16;fontColor=#000000;" vertex="1" parent="1">
                    <mxGeometry x="210" y="100" width="140" height="20" as="geometry"/>
                </mxCell>
                <mxCell id="11" value="Parses for new files Every&amp;nbsp; minutes (Default)" style="text;html=1;strokeColor=none;fillColor=none;align=center;verticalAlign=middle;whiteSpace=wrap;rounded=0;sketch=1;fontSize=16;fontColor=#000000;" vertex="1" parent="1">
                    <mxGeometry x="530" y="100" width="160" height="20" as="geometry"/>
                </mxCell>
                <mxCell id="15" value="Creates a DagRun Object" style="text;html=1;strokeColor=none;fillColor=none;align=center;verticalAlign=middle;whiteSpace=wrap;rounded=0;sketch=1;fontSize=16;fontColor=#000000;" vertex="1" parent="1">
                    <mxGeometry x="310" y="220" width="200" height="20" as="geometry"/>
                </mxCell>
                <mxCell id="16" value="Should Trigger" style="rhombus;whiteSpace=wrap;html=1;rounded=0;sketch=1;strokeColor=#457B9D;fillColor=#A8DADC;fontSize=16;fontColor=#000000;" vertex="1" parent="1">
                    <mxGeometry x="650" y="140" width="80" height="80" as="geometry"/>
                </mxCell>
                <mxCell id="17" style="edgeStyle=orthogonalEdgeStyle;curved=0;rounded=1;sketch=1;orthogonalLoop=1;jettySize=auto;html=1;exitX=0.5;exitY=1;exitDx=0;exitDy=0;entryX=0.5;entryY=0;entryDx=0;entryDy=0;strokeColor=#FF8000;fillColor=#A8DADC;fontSize=16;fontColor=#000000;" edge="1" parent="1" source="4" target="16">
                    <mxGeometry relative="1" as="geometry">
                        <mxPoint x="780" y="100" as="sourcePoint"/>
                        <mxPoint x="100" y="270" as="targetPoint"/>
                    </mxGeometry>
                </mxCell>
                <mxCell id="18" value="Yes" style="text;html=1;strokeColor=none;fillColor=none;align=center;verticalAlign=middle;whiteSpace=wrap;rounded=0;sketch=1;fontSize=16;fontColor=#000000;" vertex="1" parent="1">
                    <mxGeometry x="590" y="210" width="140" height="20" as="geometry"/>
                </mxCell>
                <mxCell id="19" value="DagRun" style="rounded=1;whiteSpace=wrap;html=1;sketch=1;strokeColor=#457B9D;fillColor=#A8DADC;fontSize=16;fontColor=#1D3557;" vertex="1" parent="1">
                    <mxGeometry x="45" y="330" width="100" height="40" as="geometry"/>
                </mxCell>
                <mxCell id="24" value="TaskInstance" style="rounded=1;whiteSpace=wrap;html=1;sketch=1;strokeColor=#457B9D;fillColor=#A8DADC;fontSize=16;fontColor=#1D3557;" vertex="1" parent="1">
                    <mxGeometry x="890" y="210" width="100" height="40" as="geometry"/>
                </mxCell>
                <mxCell id="25" value="Sends TaskInstance to Executor" style="text;html=1;strokeColor=none;fillColor=none;align=center;verticalAlign=middle;whiteSpace=wrap;rounded=0;sketch=1;fontSize=16;fontColor=#000000;" vertex="1" parent="1">
                    <mxGeometry x="830" y="130" width="160" height="20" as="geometry"/>
                </mxCell>
                <mxCell id="28" value="TaskInstance" style="rounded=1;whiteSpace=wrap;html=1;sketch=1;strokeColor=#457B9D;fillColor=#A8DADC;fontSize=16;fontColor=#1D3557;" vertex="1" parent="1">
                    <mxGeometry x="45" y="380" width="100" height="40" as="geometry"/>
                </mxCell>
                <mxCell id="31" value="" style="edgeStyle=orthogonalEdgeStyle;curved=0;rounded=1;sketch=1;orthogonalLoop=1;jettySize=auto;html=1;strokeColor=#FF8000;fillColor=#A8DADC;fontSize=16;fontColor=#1D3557;" edge="1" parent="1" source="30" target="5">
                    <mxGeometry relative="1" as="geometry"/>
                </mxCell>
                <mxCell id="46" style="edgeStyle=orthogonalEdgeStyle;curved=0;rounded=1;sketch=1;orthogonalLoop=1;jettySize=auto;html=1;exitX=0;exitY=0.5;exitDx=0;exitDy=0;entryX=1;entryY=0.3;entryDx=0;entryDy=0;strokeColor=#FF8000;fillColor=#A8DADC;fontSize=16;fontColor=#1D3557;" edge="1" parent="1" source="30" target="40">
                    <mxGeometry relative="1" as="geometry"/>
                </mxCell>
                <mxCell id="30" value="Task Running" style="rhombus;whiteSpace=wrap;html=1;rounded=0;sketch=1;strokeColor=#457B9D;fillColor=#A8DADC;fontSize=16;fontColor=#000000;" vertex="1" parent="1">
                    <mxGeometry x="560" y="280" width="80" height="80" as="geometry"/>
                </mxCell>
                <mxCell id="36" value="Creates a TaskInstance Object" style="text;html=1;strokeColor=none;fillColor=none;align=center;verticalAlign=middle;whiteSpace=wrap;rounded=0;sketch=1;fontSize=16;fontColor=#000000;" vertex="1" parent="1">
                    <mxGeometry x="320" y="400" width="230" height="20" as="geometry"/>
                </mxCell>
                <mxCell id="39" value="Updates a TaskInstance Object" style="text;html=1;strokeColor=none;fillColor=none;align=center;verticalAlign=middle;whiteSpace=wrap;rounded=0;sketch=1;fontSize=16;fontColor=#000000;" vertex="1" parent="1">
                    <mxGeometry x="320" y="290" width="230" height="20" as="geometry"/>
                </mxCell>
            </root>
        </mxGraphModel>
    </diagram>
</mxfile>